<svg xmlns="http://www.w3.org/2000/svg" xmlns:xlink="http://www.w3.org/1999/xlink" width="530" zoomAndPan="magnify" viewBox="0 0 397.5 149.999998" height="200" preserveAspectRatio="xMidYMid meet" version="1.2"><defs/><g id="4027a4f386"><g style="fill:#000000;fill-opacity:1;"><g transform="translate(43.288724, 92.849396)"><path style="stroke:none" d="M 33.484375 22.140625 C 34.710938 22.191406 35.929688 22.148438 37.140625 22.015625 C 38.359375 21.890625 39.519531 21.585938 40.625 21.109375 C 43.957031 19.515625 45.097656 17.003906 44.046875 13.578125 C 43.460938 11.828125 42.5625 10.21875 41.34375 8.75 C 39.925781 6.945312 38.367188 5.273438 36.671875 3.734375 C 34.984375 2.203125 33.238281 0.726562 31.4375 -0.6875 C 30.425781 -1.425781 29.476562 -1.398438 28.59375 -0.609375 C 25.832031 1.453125 23.347656 3.753906 21.140625 6.296875 C 20.179688 7.453125 19.363281 8.710938 18.6875 10.078125 C 17.25 13.460938 17.957031 16.320312 20.8125 18.65625 C 22.175781 19.707031 23.691406 20.472656 25.359375 20.953125 C 27.992188 21.742188 30.703125 22.140625 33.484375 22.140625 Z M 35.140625 -5.1875 C 35.265625 -4.726562 35.46875 -4.347656 35.75 -4.046875 C 36.039062 -3.742188 36.34375 -3.5 36.65625 -3.3125 C 36.875 -3.144531 37.09375 -2.976562 37.3125 -2.8125 C 38.144531 -2.09375 38.984375 -1.335938 39.828125 -0.546875 C 41.410156 0.847656 42.945312 2.226562 44.4375 3.59375 C 46.59375 5.59375 48.332031 7.910156 49.65625 10.546875 C 50.976562 13.191406 51.320312 15.753906 50.6875 18.234375 C 50.050781 20.722656 48.097656 22.710938 44.828125 24.203125 C 43.460938 24.828125 42.007812 25.242188 40.46875 25.453125 C 37.519531 25.816406 34.550781 25.960938 31.5625 25.890625 C 28.570312 25.816406 25.625 25.382812 22.71875 24.59375 C 21.300781 24.207031 19.929688 23.703125 18.609375 23.078125 C 17.296875 22.453125 16.109375 21.640625 15.046875 20.640625 C 11.285156 17.203125 10.492188 13.179688 12.671875 8.578125 C 13.566406 6.796875 14.695312 5.160156 16.0625 3.671875 C 18.289062 1.347656 20.664062 -0.8125 23.1875 -2.8125 C 24.457031 -3.820312 25.082031 -4.550781 25.0625 -5 C 25.039062 -5.457031 24.304688 -6.109375 22.859375 -6.953125 C 20.296875 -8.679688 17.691406 -10.394531 15.046875 -12.09375 C 13.660156 -12.988281 12.28125 -13.890625 10.90625 -14.796875 C 10.070312 -15.378906 9.234375 -15.929688 8.390625 -16.453125 C 6.273438 -17.773438 4.1875 -19.171875 2.125 -20.640625 C -0.207031 -22.296875 -2.382812 -24.09375 -4.40625 -26.03125 C -6.4375 -27.976562 -8.222656 -30.175781 -9.765625 -32.625 C -12.929688 -37.738281 -14.101562 -42.957031 -13.28125 -48.28125 C -12.46875 -53.613281 -10.144531 -58.753906 -6.3125 -63.703125 C -2.488281 -68.648438 2.328125 -73.101562 8.140625 -77.0625 C 13.953125 -81.019531 20.253906 -84.222656 27.046875 -86.671875 C 33.835938 -89.117188 40.597656 -90.53125 47.328125 -90.90625 C 54.066406 -91.28125 60.253906 -90.332031 65.890625 -88.0625 C 71.535156 -85.789062 76.179688 -81.882812 79.828125 -76.34375 C 80.484375 -75.332031 81.03125 -74.265625 81.46875 -73.140625 C 81.914062 -72.015625 82.140625 -70.8125 82.140625 -69.53125 C 82.140625 -68.257812 81.5625 -67.46875 80.40625 -67.15625 C 79.613281 -66.945312 78.890625 -66.960938 78.234375 -67.203125 C 77.578125 -67.441406 77.078125 -67.820312 76.734375 -68.34375 C 76.691406 -68.488281 76.644531 -68.671875 76.59375 -68.890625 C 76.539062 -69.003906 76.515625 -69.113281 76.515625 -69.21875 C 74.097656 -75.914062 70.507812 -80.691406 65.75 -83.546875 C 61 -86.398438 55.625 -87.738281 49.625 -87.5625 C 43.625 -87.382812 37.492188 -86.078125 31.234375 -83.640625 C 24.984375 -81.203125 19.109375 -78.097656 13.609375 -74.328125 C 8.109375 -70.554688 3.5 -66.503906 -0.21875 -62.171875 C -3.9375 -57.835938 -6.238281 -53.628906 -7.125 -49.546875 C -8.039062 -44.484375 -7.175781 -39.789062 -4.53125 -35.46875 C -2.425781 -31.820312 0.269531 -28.703125 3.5625 -26.109375 C 6.082031 -24.117188 8.664062 -22.222656 11.3125 -20.421875 C 13.6875 -18.878906 16.035156 -17.363281 18.359375 -15.875 C 21.578125 -13.832031 24.75 -11.757812 27.875 -9.65625 C 28.757812 -9 29.585938 -8.703125 30.359375 -8.765625 C 31.128906 -8.828125 31.929688 -9.144531 32.765625 -9.71875 C 36.941406 -12.238281 41.066406 -14.554688 45.140625 -16.671875 C 49.210938 -18.785156 51.46875 -19.367188 51.90625 -18.421875 C 52.351562 -17.472656 51.710938 -16.363281 49.984375 -15.09375 C 45.898438 -12.925781 41.988281 -10.5 38.25 -7.8125 C 38.03125 -7.71875 37.820312 -7.585938 37.625 -7.421875 C 36.625 -6.890625 35.796875 -6.144531 35.140625 -5.1875 Z M 35.140625 -5.1875 "/></g></g><g style="fill:#000000;fill-opacity:1;"><g transform="translate(89.773169, 92.849396)"><path style="stroke:none" d="M 26.21875 -18.046875 C 26.53125 -17.878906 26.671875 -17.59375 26.640625 -17.1875 C 26.617188 -16.789062 26.5 -16.441406 26.28125 -16.140625 C 24.65625 -13.710938 22.90625 -11.5625 21.03125 -9.6875 C 19.15625 -7.8125 17.09375 -6.410156 14.84375 -5.484375 C 12.601562 -4.566406 10.03125 -4.3125 7.125 -4.71875 C 5.1875 -5.03125 3.722656 -5.6875 2.734375 -6.6875 C 1.753906 -7.695312 1.023438 -9.128906 0.546875 -10.984375 C -0.242188 -13.890625 -0.425781 -16.878906 0 -19.953125 C 0.363281 -21.722656 1.46875 -22.644531 3.3125 -22.71875 C 4.96875 -22.71875 5.867188 -21.972656 6.015625 -20.484375 C 6.054688 -19.265625 6.054688 -18.054688 6.015625 -16.859375 C 6.015625 -16.679688 6.015625 -16.523438 6.015625 -16.390625 C 5.921875 -13.097656 6.453125 -10.84375 7.609375 -9.625 C 8.773438 -8.414062 10.296875 -8.097656 12.171875 -8.671875 C 14.046875 -9.253906 16.039062 -10.578125 18.15625 -12.640625 C 18.414062 -12.898438 18.742188 -13.257812 19.140625 -13.71875 C 19.535156 -14.175781 19.972656 -14.632812 20.453125 -15.09375 C 21.128906 -15.789062 21.679688 -16.378906 22.109375 -16.859375 C 23.429688 -18.171875 24.800781 -18.566406 26.21875 -18.046875 Z M 2.84375 -28.015625 C 1.375 -28.109375 0.535156 -28.898438 0.328125 -30.390625 C 0.160156 -31.546875 0.335938 -32.648438 0.859375 -33.703125 C 1.335938 -34.617188 2.117188 -35.242188 3.203125 -35.578125 C 4.285156 -35.910156 5.304688 -35.816406 6.265625 -35.296875 C 6.628906 -35.097656 6.890625 -34.820312 7.046875 -34.46875 C 7.203125 -34.125 7.253906 -33.847656 7.203125 -33.640625 C 7.148438 -29.835938 5.695312 -27.960938 2.84375 -28.015625 Z M 2.84375 -28.015625 "/></g></g><g style="fill:#000000;fill-opacity:1;"><g transform="translate(111.845179, 92.849396)"><path style="stroke:none" d="M 38.96875 -18.4375 C 39.445312 -18.269531 39.710938 -17.929688 39.765625 -17.421875 C 39.828125 -16.921875 39.691406 -16.46875 39.359375 -16.0625 C 39.046875 -15.675781 38.613281 -15.207031 38.0625 -14.65625 C 37.507812 -14.101562 36.96875 -13.5625 36.4375 -13.03125 C 36.007812 -12.675781 35.664062 -12.363281 35.40625 -12.09375 C 30.5 -7.226562 25.828125 -2.148438 21.390625 3.140625 C 20.816406 3.753906 20.34375 4.414062 19.96875 5.125 C 19.59375 5.832031 19.359375 6.644531 19.265625 7.5625 C 18.878906 11.351562 18.171875 16.050781 17.140625 21.65625 C 16.109375 27.257812 14.734375 32.75 13.015625 38.125 C 11.296875 43.507812 9.285156 47.765625 6.984375 50.890625 C 5.273438 53.046875 3.03125 54.234375 0.25 54.453125 C -4.09375 54.566406 -6.578125 52.453125 -7.203125 48.109375 C -7.628906 43.878906 -7.039062 39.414062 -5.4375 34.71875 C -3.832031 30.03125 -1.710938 25.507812 0.921875 21.15625 C 3.566406 16.800781 6.210938 13.109375 8.859375 10.078125 C 10.128906 8.347656 11.304688 5.382812 12.390625 1.1875 C 13.472656 -3.007812 14.144531 -6.671875 14.40625 -9.796875 C 14.519531 -11.378906 14.414062 -12.25 14.09375 -12.40625 C 13.769531 -12.5625 13.191406 -12.375 12.359375 -11.84375 C 11.609375 -11.4375 10.703125 -11.035156 9.640625 -10.640625 C 8.585938 -10.242188 7.332031 -10.070312 5.875 -10.125 C 3.851562 -10.332031 2.378906 -11.097656 1.453125 -12.421875 C 0.535156 -13.742188 0.0625 -15.285156 0.03125 -17.046875 C 0.0078125 -18.816406 0.285156 -20.445312 0.859375 -21.9375 C 1.554688 -23.394531 2.46875 -24.757812 3.59375 -26.03125 C 4.726562 -27.300781 5.957031 -28.441406 7.28125 -29.453125 C 9.457031 -31.035156 11.785156 -31.347656 14.265625 -30.390625 C 14.617188 -30.222656 14.914062 -29.992188 15.15625 -29.703125 C 15.394531 -29.421875 15.492188 -29.078125 15.453125 -28.671875 C 15.398438 -28.285156 15.253906 -28 15.015625 -27.8125 C 14.773438 -27.632812 14.5 -27.519531 14.1875 -27.46875 C 12.070312 -26.675781 10.363281 -25.328125 9.0625 -23.421875 C 7.769531 -21.515625 6.96875 -19.664062 6.65625 -17.875 C 6.34375 -16.09375 6.609375 -14.984375 7.453125 -14.546875 C 8.023438 -14.453125 8.773438 -14.734375 9.703125 -15.390625 C 10.628906 -16.054688 11.507812 -16.832031 12.34375 -17.71875 C 13.1875 -18.601562 13.800781 -19.265625 14.1875 -19.703125 C 15.34375 -21.285156 16.925781 -22.050781 18.9375 -22 C 21.195312 -21.957031 22.328125 -20.84375 22.328125 -18.65625 C 22.273438 -17.144531 22.117188 -15.507812 21.859375 -13.75 C 21.546875 -11.644531 21.390625 -9.773438 21.390625 -8.140625 C 21.554688 -6.597656 22.320312 -6.265625 23.6875 -7.140625 C 25.0625 -8.023438 26.960938 -9.570312 29.390625 -11.78125 C 30.753906 -13 32.03125 -14.148438 33.21875 -15.234375 C 34.40625 -16.316406 35.4375 -17.175781 36.3125 -17.8125 C 37.1875 -18.445312 38.070312 -18.65625 38.96875 -18.4375 Z M 4.75 43.21875 C 5.90625 40.039062 7.257812 35.535156 8.8125 29.703125 C 10.375 23.867188 11.289062 19.3125 11.5625 16.03125 C 10.71875 17.394531 10.054688 18.34375 9.578125 18.875 C 9.359375 19.132812 9.203125 19.375 9.109375 19.59375 C 6.785156 23.238281 4.671875 26.992188 2.765625 30.859375 C 1.453125 33.597656 0.453125 36.265625 -0.234375 38.859375 C -0.921875 41.453125 -1.238281 44.269531 -1.1875 47.3125 C -1.1875 48.539062 -1.050781 49.429688 -0.78125 49.984375 C -0.519531 50.535156 -0.078125 50.5 0.546875 49.875 C 2.335938 47.90625 3.738281 45.6875 4.75 43.21875 Z M 4.75 43.21875 "/></g></g><g style="fill:#000000;fill-opacity:1;"><g transform="translate(147.02357, 92.849396)"><path style="stroke:none" d="M 47.53125 -16.921875 C 47.53125 -16.921875 47.554688 -16.921875 47.609375 -16.921875 C 47.867188 -16.878906 48.128906 -16.789062 48.390625 -16.65625 C 48.660156 -16.519531 48.832031 -16.257812 48.90625 -15.875 C 49.050781 -15.207031 48.859375 -14.679688 48.328125 -14.296875 C 46.160156 -12.785156 43.84375 -11.597656 41.375 -10.734375 C 39.144531 -10.015625 36.894531 -9.554688 34.625 -9.359375 C 32.351562 -9.171875 30.054688 -9.1875 27.734375 -9.40625 C 24.734375 -9.707031 22.304688 -11.132812 20.453125 -13.6875 C 19.878906 -14.476562 19.289062 -15.269531 18.6875 -16.0625 C 18.113281 -16.851562 17.515625 -17.671875 16.890625 -18.515625 C 16.359375 -19.203125 15.695312 -19.285156 14.90625 -18.765625 C 13.945312 -18.066406 13.082031 -17.28125 12.3125 -16.40625 C 11.539062 -15.53125 10.820312 -14.625 10.15625 -13.6875 C 10.101562 -13.5625 10.039062 -13.453125 9.96875 -13.359375 C 9.707031 -13.046875 9.445312 -12.695312 9.1875 -12.3125 C 8.875 -11.738281 8.515625 -11.210938 8.109375 -10.734375 C 7.410156 -9.941406 6.507812 -9.429688 5.40625 -9.203125 C 4.300781 -8.972656 3.242188 -9.0625 2.234375 -9.46875 C 1.484375 -9.851562 1.003906 -10.40625 0.796875 -11.125 C 0.117188 -13.84375 -0.300781 -16.566406 -0.46875 -19.296875 C -0.46875 -20.785156 0.210938 -21.664062 1.578125 -21.9375 C 3.171875 -22.289062 4.3125 -21.785156 5 -20.421875 C 5.101562 -20.203125 5.175781 -19.9375 5.21875 -19.625 C 5.289062 -19.3125 5.390625 -19.003906 5.515625 -18.703125 C 5.648438 -18.398438 5.898438 -18.15625 6.265625 -17.96875 C 6.703125 -18.332031 7.097656 -18.671875 7.453125 -18.984375 C 8.296875 -19.722656 9.113281 -20.441406 9.90625 -21.140625 C 10.863281 -21.929688 11.867188 -22.492188 12.921875 -22.828125 C 13.984375 -23.160156 15.113281 -23.328125 16.3125 -23.328125 C 19.125 -23.328125 21.34375 -22.222656 22.96875 -20.015625 C 23.28125 -19.535156 23.609375 -19.082031 23.953125 -18.65625 C 24.671875 -17.550781 25.425781 -16.492188 26.21875 -15.484375 C 27.488281 -13.847656 29.179688 -13.007812 31.296875 -12.96875 C 33.453125 -12.863281 35.519531 -13.054688 37.5 -13.546875 C 39.476562 -14.046875 41.394531 -14.800781 43.25 -15.8125 C 43.320312 -15.851562 43.40625 -15.910156 43.5 -15.984375 C 44.125 -16.347656 44.765625 -16.632812 45.421875 -16.84375 C 46.085938 -17.0625 46.789062 -17.085938 47.53125 -16.921875 Z M 47.53125 -16.921875 "/></g></g><g style="fill:#000000;fill-opacity:1;"><g transform="translate(191.455642, 92.849396)"><path style="stroke:none" d="M 32.984375 -18.109375 C 33.242188 -18.066406 33.421875 -17.988281 33.515625 -17.875 C 33.617188 -17.769531 33.726562 -17.5625 33.84375 -17.25 C 33.945312 -16.9375 33.84375 -16.5625 33.53125 -16.125 C 33.21875 -15.695312 32.925781 -15.351562 32.65625 -15.09375 C 30.6875 -13.238281 28.382812 -12.132812 25.75 -11.78125 C 24.238281 -11.5625 22.722656 -11.503906 21.203125 -11.609375 C 19.691406 -11.722656 18.207031 -12.09375 16.75 -12.71875 C 15.6875 -13.238281 14.703125 -13.082031 13.796875 -12.25 C 11.898438 -10.519531 9.914062 -8.863281 7.84375 -7.28125 C 6.789062 -6.476562 5.679688 -5.8125 4.515625 -5.28125 C 3.347656 -4.757812 2.082031 -4.460938 0.71875 -4.390625 C -3.289062 -4.460938 -4.875 -6.421875 -4.03125 -10.265625 C -3.988281 -10.429688 -3.929688 -10.5625 -3.859375 -10.65625 C -2.703125 -13.78125 -1.175781 -16.59375 0.71875 -19.09375 C 2.613281 -21.601562 5.015625 -23.703125 7.921875 -25.390625 C 9.835938 -26.515625 11.898438 -26.945312 14.109375 -26.6875 C 14.691406 -26.5625 15.242188 -26.34375 15.765625 -26.03125 C 16.421875 -25.71875 16.6875 -25.210938 16.5625 -24.515625 C 16.519531 -24.304688 16.421875 -24.125 16.265625 -23.96875 C 16.109375 -23.8125 15.941406 -23.660156 15.765625 -23.515625 C 15.671875 -23.390625 15.546875 -23.300781 15.390625 -23.25 C 15.234375 -23.207031 15.070312 -23.1875 14.90625 -23.1875 C 13.320312 -23.144531 11.957031 -22.679688 10.8125 -21.796875 C 9.675781 -20.921875 8.640625 -19.929688 7.703125 -18.828125 C 6.648438 -17.648438 5.671875 -16.351562 4.765625 -14.9375 C 3.867188 -13.519531 3.132812 -11.828125 2.5625 -9.859375 C 4.664062 -11.085938 6.320312 -12.300781 7.53125 -13.5 C 7.789062 -13.769531 8.050781 -14.007812 8.3125 -14.21875 C 8.53125 -14.4375 8.75 -14.628906 8.96875 -14.796875 C 10.019531 -15.785156 11.125 -16.648438 12.28125 -17.390625 C 13.601562 -18.140625 14.910156 -18.515625 16.203125 -18.515625 C 17.503906 -18.515625 18.765625 -17.984375 19.984375 -16.921875 C 21.660156 -15.429688 23.289062 -14.847656 24.875 -15.171875 C 26.46875 -15.503906 27.945312 -16.066406 29.3125 -16.859375 C 30.707031 -17.691406 31.929688 -18.109375 32.984375 -18.109375 Z M 32.984375 -18.109375 "/></g></g><g style="fill:#000000;fill-opacity:1;"><g transform="translate(221.953183, 92.849396)"><path style="stroke:none" d="M 28.515625 -17.796875 C 29.046875 -18.222656 29.441406 -18.367188 29.703125 -18.234375 C 29.972656 -18.109375 30.160156 -17.847656 30.265625 -17.453125 C 30.367188 -17.054688 30.421875 -16.664062 30.421875 -16.28125 C 30.378906 -15.5625 30.238281 -14.867188 30 -14.203125 C 29.757812 -13.546875 29.59375 -13.109375 29.5 -12.890625 C 29.425781 -12.835938 29.390625 -12.8125 29.390625 -12.8125 C 28.660156 -10.96875 27.515625 -9.144531 25.953125 -7.34375 C 24.398438 -5.539062 22.566406 -4.085938 20.453125 -2.984375 C 18.335938 -1.878906 16.09375 -1.398438 13.71875 -1.546875 C 10.382812 -1.929688 7.722656 -3.210938 5.734375 -5.390625 C 3.753906 -7.578125 2.265625 -10.191406 1.265625 -13.234375 C 0.273438 -16.273438 -0.382812 -19.269531 -0.71875 -22.21875 C -1.601562 -29.519531 -1.867188 -36.863281 -1.515625 -44.25 C -1.441406 -46.050781 -1.378906 -47.851562 -1.328125 -49.65625 C -1.328125 -50.28125 -1.328125 -50.90625 -1.328125 -51.53125 C -1.328125 -52.707031 -1.878906 -53.296875 -2.984375 -53.296875 C -4.160156 -53.296875 -5.328125 -53.320312 -6.484375 -53.375 C -7.753906 -53.375 -9.050781 -53.375 -10.375 -53.375 C -10.539062 -53.375 -10.71875 -53.375 -10.90625 -53.375 C -11.820312 -53.269531 -12.675781 -53.425781 -13.46875 -53.84375 C -13.832031 -54.007812 -14.132812 -54.234375 -14.375 -54.515625 C -14.613281 -54.804688 -14.734375 -55.164062 -14.734375 -55.59375 C -14.679688 -56.007812 -14.507812 -56.335938 -14.21875 -56.578125 C -13.9375 -56.816406 -13.578125 -56.9375 -13.140625 -56.9375 C -11.609375 -56.976562 -10.070312 -57 -8.53125 -57 C -7.59375 -57 -6.671875 -57 -5.765625 -57 C -4.566406 -57 -3.351562 -57.0625 -2.125 -57.1875 C -1.445312 -57.226562 -1.023438 -57.625 -0.859375 -58.375 C -0.765625 -59.257812 -0.679688 -60.144531 -0.609375 -61.03125 C -0.421875 -63.9375 -0.21875 -66.84375 0 -69.75 C 0.164062 -71.769531 0.320312 -73.75 0.46875 -75.6875 C 0.46875 -75.757812 0.46875 -75.820312 0.46875 -75.875 C 0.46875 -76.28125 0.503906 -76.675781 0.578125 -77.0625 C 0.984375 -78.738281 2.113281 -79.53125 3.96875 -79.4375 C 5.550781 -79.320312 6.425781 -78.445312 6.59375 -76.8125 C 6.632812 -75.75 6.632812 -74.664062 6.59375 -73.5625 C 6.59375 -73.132812 6.59375 -72.691406 6.59375 -72.234375 C 6.59375 -72.234375 6.566406 -72.234375 6.515625 -72.234375 C 6.441406 -71.015625 6.382812 -69.789062 6.34375 -68.5625 C 6.125 -65.820312 5.96875 -63.050781 5.875 -60.25 C 5.769531 -58.78125 5.898438 -57.859375 6.265625 -57.484375 C 6.628906 -57.117188 7.601562 -56.957031 9.1875 -57 C 12.15625 -56.957031 15.117188 -56.9375 18.078125 -56.9375 C 20.191406 -56.9375 22.304688 -56.910156 24.421875 -56.859375 C 24.628906 -56.859375 24.832031 -56.859375 25.03125 -56.859375 C 25.550781 -56.910156 26.050781 -56.894531 26.53125 -56.8125 C 27.019531 -56.726562 27.503906 -56.550781 27.984375 -56.28125 C 28.128906 -56.132812 28.265625 -55.984375 28.390625 -55.828125 C 28.523438 -55.671875 28.628906 -55.460938 28.703125 -55.203125 C 28.703125 -54.941406 28.617188 -54.722656 28.453125 -54.546875 C 28.285156 -54.378906 28.128906 -54.25 27.984375 -54.15625 C 27.023438 -53.632812 26.015625 -53.421875 24.953125 -53.515625 C 24.804688 -53.515625 24.628906 -53.515625 24.421875 -53.515625 C 21.242188 -53.515625 18.097656 -53.488281 14.984375 -53.4375 C 13.234375 -53.394531 11.46875 -53.375 9.6875 -53.375 C 9.5625 -53.375 9.453125 -53.375 9.359375 -53.375 C 8.566406 -53.375 7.753906 -53.347656 6.921875 -53.296875 C 6.054688 -53.171875 5.550781 -52.691406 5.40625 -51.859375 C 5.28125 -51.378906 5.21875 -50.910156 5.21875 -50.453125 C 5.03125 -45.796875 4.945312 -41.128906 4.96875 -36.453125 C 4.988281 -31.785156 5.289062 -27.148438 5.875 -22.546875 C 6.351562 -18.847656 7.320312 -15.304688 8.78125 -11.921875 C 9.570312 -10.066406 10.535156 -8.613281 11.671875 -7.5625 C 12.816406 -6.507812 14.097656 -6.066406 15.515625 -6.234375 C 18.160156 -6.660156 20.207031 -7.597656 21.65625 -9.046875 C 23.113281 -10.503906 24.347656 -12.070312 25.359375 -13.75 C 26.316406 -15.382812 27.367188 -16.734375 28.515625 -17.796875 Z M 28.515625 -17.796875 "/></g></g><g style="fill:#000000;fill-opacity:1;"><g transform="translate(248.273964, 92.849396)"><path style="stroke:none" d="M 45.15625 -18.1875 C 45.46875 -18.132812 45.6875 -18.03125 45.8125 -17.875 C 45.945312 -17.71875 46.039062 -17.484375 46.09375 -17.171875 C 46.09375 -16.378906 45.363281 -15.46875 43.90625 -14.4375 C 42.457031 -13.40625 40.875 -12.453125 39.15625 -11.578125 C 37.445312 -10.703125 36.226562 -10.15625 35.5 -9.9375 C 33.050781 -9 30.65625 -8.675781 28.3125 -8.96875 C 25.976562 -9.257812 23.9375 -10.484375 22.1875 -12.640625 C 21.082031 -14.171875 20.253906 -14.867188 19.703125 -14.734375 C 19.148438 -14.609375 18.476562 -13.9375 17.6875 -12.71875 C 16.820312 -11.34375 15.414062 -9.707031 13.46875 -7.8125 C 11.257812 -6.175781 9.1875 -5.410156 7.25 -5.515625 C 5.320312 -5.628906 3.695312 -6.378906 2.375 -7.765625 C 1.050781 -9.160156 0.191406 -10.957031 -0.203125 -13.15625 C -0.597656 -15.351562 -0.375 -17.691406 0.46875 -20.171875 C 1.164062 -22.140625 2.617188 -22.953125 4.828125 -22.609375 C 5.398438 -22.515625 5.859375 -22.269531 6.203125 -21.875 C 6.554688 -21.476562 6.648438 -20.992188 6.484375 -20.421875 C 6.023438 -18.453125 5.84375 -16.492188 5.9375 -14.546875 C 5.894531 -13.273438 6.132812 -12.085938 6.65625 -10.984375 C 7.1875 -10.023438 7.914062 -9.863281 8.84375 -10.5 C 9.769531 -11.132812 10.691406 -12.054688 11.609375 -13.265625 C 12.535156 -14.484375 13.265625 -15.488281 13.796875 -16.28125 C 13.890625 -16.488281 13.992188 -16.679688 14.109375 -16.859375 C 14.304688 -17.117188 14.515625 -17.40625 14.734375 -17.71875 C 15.378906 -18.726562 16.0625 -19.675781 16.78125 -20.5625 C 18.050781 -22.050781 19.671875 -22.6875 21.640625 -22.46875 C 23.316406 -22.375 24.503906 -21.535156 25.203125 -19.953125 C 26.578125 -16.441406 28.59375 -14.519531 31.25 -14.1875 C 33.914062 -13.851562 36.8125 -14.679688 39.9375 -16.671875 C 40.726562 -17.273438 41.539062 -17.734375 42.375 -18.046875 C 43.21875 -18.359375 44.144531 -18.40625 45.15625 -18.1875 Z M 45.15625 -18.1875 "/></g></g><g style="fill:#000000;fill-opacity:1;"><g transform="translate(289.357428, 92.849396)"><path style="stroke:none" d="M 32.015625 -17 C 32.898438 -17.90625 33.6875 -18.265625 34.375 -18.078125 C 35.0625 -17.890625 35.488281 -17.382812 35.65625 -16.5625 C 35.820312 -15.75 35.582031 -14.835938 34.9375 -13.828125 C 33.613281 -11.878906 31.75 -9.78125 29.34375 -7.53125 C 26.945312 -5.289062 24.359375 -3.335938 21.578125 -1.671875 C 18.804688 -0.00390625 16.1875 0.898438 13.71875 1.046875 C 8.695312 1.304688 6.34375 -1.09375 6.65625 -6.15625 C 6.707031 -6.832031 6.84375 -7.734375 7.0625 -8.859375 C 7.269531 -9.960938 7.441406 -11.03125 7.578125 -12.0625 C 7.710938 -13.09375 7.644531 -13.789062 7.375 -14.15625 C 7.039062 -14.46875 6.664062 -14.625 6.25 -14.625 C 5.832031 -14.625 5.378906 -14.570312 4.890625 -14.46875 C 4.367188 -14.351562 3.878906 -14.332031 3.421875 -14.40625 C 0.972656 -14.664062 -0.296875 -15.925781 -0.390625 -18.1875 C -0.441406 -21.300781 0.128906 -24.289062 1.328125 -27.15625 C 1.710938 -28.039062 2.429688 -28.625 3.484375 -28.90625 C 4.546875 -29.195312 5.519531 -29.082031 6.40625 -28.5625 C 6.988281 -28.195312 7.253906 -27.703125 7.203125 -27.078125 C 7.109375 -26.210938 6.953125 -25.359375 6.734375 -24.515625 C 6.640625 -24.160156 6.554688 -23.789062 6.484375 -23.40625 C 6.023438 -21.195312 6.03125 -20.050781 6.5 -19.96875 C 6.96875 -19.882812 7.992188 -20.476562 9.578125 -21.75 C 10.753906 -22.59375 12.050781 -22.941406 13.46875 -22.796875 C 15.363281 -22.628906 16.128906 -21.570312 15.765625 -19.625 C 15.453125 -18.300781 15.128906 -16.957031 14.796875 -15.59375 C 14.078125 -12.78125 13.523438 -9.945312 13.140625 -7.09375 C 12.992188 -5.144531 13.34375 -4.007812 14.1875 -3.6875 C 15.03125 -3.363281 16.148438 -3.5625 17.546875 -4.28125 C 18.953125 -5 20.429688 -5.960938 21.984375 -7.171875 C 23.535156 -8.390625 24.90625 -9.582031 26.09375 -10.75 C 27.28125 -11.914062 28.085938 -12.757812 28.515625 -13.28125 C 28.734375 -13.550781 29.0625 -13.921875 29.5 -14.390625 C 29.945312 -14.859375 30.410156 -15.332031 30.890625 -15.8125 C 31.421875 -16.332031 31.796875 -16.726562 32.015625 -17 Z M 32.015625 -17 "/></g></g><g style="fill:#000000;fill-opacity:1;"><g transform="translate(320.431073, 92.849396)"><path style="stroke:none" d="M 7.671875 -14.078125 C 7.617188 -14.078125 7.570312 -14.078125 7.53125 -14.078125 C 7.53125 -14.078125 7.550781 -14.078125 7.59375 -14.078125 C 7.59375 -14.078125 7.617188 -14.078125 7.671875 -14.078125 Z M 32.875 -17.71875 C 33.144531 -17.882812 33.566406 -18.082031 34.140625 -18.3125 C 34.710938 -18.539062 35.265625 -18.671875 35.796875 -18.703125 C 36.328125 -18.742188 36.695312 -18.546875 36.90625 -18.109375 C 37.070312 -17.796875 37.113281 -17.492188 37.03125 -17.203125 C 36.945312 -16.921875 36.800781 -16.671875 36.59375 -16.453125 C 35.269531 -15.015625 33.21875 -13.554688 30.4375 -12.078125 C 27.664062 -10.597656 24.789062 -9.296875 21.8125 -8.171875 C 18.84375 -7.046875 16.375 -6.316406 14.40625 -5.984375 C 12.144531 -5.566406 9.851562 -5.46875 7.53125 -5.6875 C 4.664062 -6.050781 2.535156 -7.234375 1.140625 -9.234375 C -0.242188 -11.242188 -0.804688 -13.492188 -0.546875 -15.984375 C -0.128906 -18.773438 1.144531 -20.988281 3.28125 -22.625 C 5.414062 -24.269531 7.863281 -24.878906 10.625 -24.453125 C 12.300781 -24.234375 13.828125 -23.617188 15.203125 -22.609375 C 16.679688 -21.410156 17.34375 -20.03125 17.1875 -18.46875 C 17.039062 -16.914062 16.113281 -15.71875 14.40625 -14.875 C 13.519531 -14.4375 12.535156 -14.164062 11.453125 -14.0625 C 10.367188 -13.957031 9.109375 -13.960938 7.671875 -14.078125 C 7.671875 -14.078125 7.632812 -14.078125 7.5625 -14.078125 C 7.488281 -14.078125 7.375 -14.078125 7.21875 -14.078125 C 7.0625 -14.078125 6.898438 -14.078125 6.734375 -14.078125 C 6.296875 -14.078125 6.007812 -13.957031 5.875 -13.71875 C 5.75 -13.476562 5.75 -13.175781 5.875 -12.8125 C 6.664062 -10.84375 8.21875 -9.804688 10.53125 -9.703125 C 12.851562 -9.597656 15.484375 -10.035156 18.421875 -11.015625 C 21.359375 -12.003906 24.144531 -13.144531 26.78125 -14.4375 C 29.425781 -15.738281 31.457031 -16.832031 32.875 -17.71875 Z M 7.59375 -20.015625 C 7.238281 -19.753906 6.992188 -19.445312 6.859375 -19.09375 C 6.722656 -18.75 6.644531 -18.457031 6.625 -18.21875 C 6.601562 -17.976562 6.640625 -17.835938 6.734375 -17.796875 C 6.828125 -17.742188 7.125 -17.675781 7.625 -17.59375 C 8.132812 -17.507812 8.695312 -17.492188 9.3125 -17.546875 C 9.925781 -17.609375 10.429688 -17.738281 10.828125 -17.9375 C 11.222656 -18.144531 11.359375 -18.515625 11.234375 -19.046875 C 10.972656 -19.796875 10.460938 -20.265625 9.703125 -20.453125 C 8.953125 -20.648438 8.25 -20.503906 7.59375 -20.015625 Z M 7.59375 -20.015625 "/></g></g></g></svg>