<svg xmlns="http://www.w3.org/2000/svg" xmlns:xlink="http://www.w3.org/1999/xlink" width="794" zoomAndPan="magnify" viewBox="0 0 595.5 842.249979" height="1123" preserveAspectRatio="xMidYMid meet" version="1.2"><defs><clipPath id="280e51e6b6"><path d="M 0.015625 0 L 594.984375 0 L 594.984375 841.5 L 0.015625 841.5 Z M 0.015625 0 "/></clipPath><clipPath id="c5e656f3a5"><path d="M 0.015625 0 L 594.984375 0 L 594.984375 841.5 L 0.015625 841.5 Z M 0.015625 0 "/></clipPath><clipPath id="99c6479b2a"><path d="M 148 511 L 594.984375 511 L 594.984375 841.5 L 148 841.5 Z M 148 511 "/></clipPath><filter x="0%" y="0%" width="100%" filterUnits="objectBoundingBox" id="e563799d5a" height="100%"><feColorMatrix values="0 0 0 0 1 0 0 0 0 1 0 0 0 0 1 0 0 0 1 0" type="matrix" in="SourceGraphic"/></filter><clipPath id="d6ad011ef0"><path d="M 0.441406 1.207031 L 446.984375 1.207031 L 446.984375 330.5 L 0.441406 330.5 Z M 0.441406 1.207031 "/></clipPath><clipPath id="98c5130117"><path d="M 55 0.40625 L 446.984375 0.40625 L 446.984375 329.5 L 55 329.5 Z M 55 0.40625 "/></clipPath><clipPath id="6da4fe1a49"><path d="M 0.441406 93 L 446.984375 93 L 446.984375 329.5 L 0.441406 329.5 Z M 0.441406 93 "/></clipPath><clipPath id="afcf77fcd3"><path d="M 176 155 L 446.984375 155 L 446.984375 329.5 L 176 329.5 Z M 176 155 "/></clipPath><clipPath id="0c0c42fcd2"><rect x="0" width="447" y="0" height="330"/></clipPath><clipPath id="8d4c614d47"><rect x="0" width="447" y="0" height="331"/></clipPath><clipPath id="3275f084c1"><path d="M 343.425781 653.101562 L 594.984375 653.101562 L 594.984375 841.253906 L 343.425781 841.253906 Z M 343.425781 653.101562 "/></clipPath><clipPath id="51e88dced6"><path d="M 175 0.101562 L 251.925781 0.101562 L 251.925781 188.253906 L 175 188.253906 Z M 175 0.101562 "/></clipPath><clipPath id="222558df7b"><path d="M 0.425781 15 L 251.925781 15 L 251.925781 188.253906 L 0.425781 188.253906 Z M 0.425781 15 "/></clipPath><clipPath id="fef82d537a"><rect x="0" width="252" y="0" height="189"/></clipPath><clipPath id="4e8214a7a5"><path d="M 0.015625 0 L 594.984375 0 L 594.984375 579 L 0.015625 579 Z M 0.015625 0 "/></clipPath><clipPath id="bb320c62e6"><path d="M 143 0 L 594.984375 0 L 594.984375 578.363281 L 143 578.363281 Z M 143 0 "/></clipPath><clipPath id="d62c8f0f74"><path d="M 67.21875 -33.691406 L 702.242188 97.410156 L 602.972656 578.265625 L -32.054688 447.167969 Z M 67.21875 -33.691406 "/></clipPath><clipPath id="9ce73e2100"><path d="M 67.21875 -33.691406 L 702.242188 97.410156 L 602.972656 578.265625 L -32.054688 447.167969 Z M 67.21875 -33.691406 "/></clipPath><clipPath id="2ba88343a2"><path d="M 66 0 L 594.984375 0 L 594.984375 446 L 66 446 Z M 66 0 "/></clipPath><clipPath id="afe87e3060"><path d="M 67.21875 -33.691406 L 702.242188 97.410156 L 602.972656 578.265625 L -32.054688 447.167969 Z M 67.21875 -33.691406 "/></clipPath><clipPath id="e30feaea52"><path d="M 67.21875 -33.691406 L 702.242188 97.410156 L 602.972656 578.265625 L -32.054688 447.167969 Z M 67.21875 -33.691406 "/></clipPath><clipPath id="74e33b8f2e"><path d="M 316 23 L 594.984375 23 L 594.984375 358 L 316 358 Z M 316 23 "/></clipPath><clipPath id="c516a58a92"><path d="M 67.21875 -33.691406 L 702.242188 97.410156 L 602.972656 578.265625 L -32.054688 447.167969 Z M 67.21875 -33.691406 "/></clipPath><clipPath id="5207fcbab1"><path d="M 67.21875 -33.691406 L 702.242188 97.410156 L 602.972656 578.265625 L -32.054688 447.167969 Z M 67.21875 -33.691406 "/></clipPath><clipPath id="7b68db5c9b"><rect x="0" width="595" y="0" height="579"/></clipPath><clipPath id="9ddf37432b"><path d="M 247 0 L 594.984375 0 L 594.984375 289.519531 L 247 289.519531 Z M 247 0 "/></clipPath><clipPath id="f8735f0a6d"><path d="M 198.785156 0 L 594.984375 0 L 594.984375 208 L 198.785156 208 Z M 198.785156 0 "/></clipPath><clipPath id="5701424531"><path d="M 355 0 L 594.984375 0 L 594.984375 152 L 355 152 Z M 355 0 "/></clipPath><clipPath id="65ed2eaf91"><rect x="0" width="595" y="0" height="842"/></clipPath></defs><g id="f9e32d6d74"><g clip-rule="nonzero" clip-path="url(#280e51e6b6)"><path style=" stroke:none;fill-rule:nonzero;fill:#ffffff;fill-opacity:1;" d="M 0.015625 0 L 594.984375 0 L 594.984375 841.5 L 0.015625 841.5 Z M 0.015625 0 "/><g transform="matrix(1,0,0,1,-0.000000000000000002,0)"><g clip-path="url(#65ed2eaf91)"><g clip-rule="nonzero" clip-path="url(#c5e656f3a5)"><path style=" stroke:none;fill-rule:nonzero;fill:#ffffff;fill-opacity:1;" d="M 0.015625 0 L 595.210938 0 L 595.210938 841.816406 L 0.015625 841.816406 Z M 0.015625 0 "/></g><g clip-rule="nonzero" clip-path="url(#99c6479b2a)"><g mask="url(#5f294d288e)" transform="matrix(1,0,0,1,148,511)"><g id="236eaad329" clip-path="url(#8d4c614d47)"><g clip-rule="nonzero" clip-path="url(#d6ad011ef0)"><g transform="matrix(1,0,0,1,0,1)"><g id="d03354d4a6" clip-path="url(#0c0c42fcd2)"><g clip-rule="nonzero" clip-path="url(#98c5130117)"><path style=" stroke:none;fill-rule:evenodd;fill:#d9d9d9;fill-opacity:1;" d="M 55.132812 334.527344 C 102.617188 270.53125 140.808594 161.96875 245.148438 154.269531 C 359.71875 145.773438 405.324219 83.070312 446.925781 0.214844 L 446.925781 334.527344 Z M 55.132812 334.527344 "/></g><g clip-rule="nonzero" clip-path="url(#6da4fe1a49)"><path style=" stroke:none;fill-rule:evenodd;fill:#a6a6a6;fill-opacity:1;" d="M 0.457031 334.527344 C 68.636719 265.707031 268.457031 338.484375 284.574219 234.605469 C 298.515625 145.269531 383.832031 134.972656 446.925781 93.371094 L 446.925781 334.527344 Z M 0.457031 334.527344 "/></g><g clip-rule="nonzero" clip-path="url(#afcf77fcd3)"><path style=" stroke:none;fill-rule:nonzero;fill:#d9d9d9;fill-opacity:1;" d="M 446.925781 161.988281 L 446.925781 155.71875 C 391.925781 156.601562 339.019531 162.878906 313.742188 226.902344 C 293.042969 279.238281 238.375 305.152344 195.535156 325.449219 C 189 328.542969 182.683594 331.570312 176.804688 334.527344 L 191.25 334.527344 C 193.5 333.445312 195.898438 332.292969 198.289062 331.144531 C 242.148438 310.339844 298.058594 283.84375 319.695312 229.207031 C 343.433594 169.003906 394.113281 162.878906 446.925781 161.988281 Z M 446.925781 161.988281 "/></g></g></g></g></g><mask id="5f294d288e"><g filter="url(#e563799d5a)"><rect x="0" width="595" height="842" y="0" style="fill:#000000;fill-opacity:0.38;stroke:none;"/></g></mask></g></g><g clip-rule="nonzero" clip-path="url(#3275f084c1)"><g transform="matrix(1,0,0,1,343,653)"><g id="5cffea94ba" clip-path="url(#fef82d537a)"><g clip-rule="nonzero" clip-path="url(#51e88dced6)"><path style=" stroke:none;fill-rule:evenodd;fill:#017077;fill-opacity:1;" d="M 233.6875 188.453125 C 159.996094 164.664062 147.375 30.273438 251.910156 0.101562 L 251.910156 188.453125 Z M 233.6875 188.453125 "/></g><g clip-rule="nonzero" clip-path="url(#222558df7b)"><path style=" stroke:none;fill-rule:nonzero;fill:#17969d;fill-opacity:1;" d="M 251.910156 16.691406 C 240.410156 15.085938 229.078125 15.621094 218.574219 18.210938 C 207.324219 20.972656 197.027344 26.117188 188.433594 33.566406 C 176.558594 43.898438 168.007812 58.632812 164.855469 77.5625 C 157.628906 120.90625 142.140625 122.097656 113.875 124.28125 C 96.808594 125.597656 75.222656 127.246094 48.195312 138.109375 C 20.835938 149.015625 7.054688 168.363281 0.496094 188.449219 L 4.191406 188.449219 C 10.625 169.554688 23.867188 151.566406 49.484375 141.320312 C 76.011719 130.660156 97.308594 129.054688 114.121094 127.738281 C 144.179688 125.390625 160.617188 124.15625 168.300781 78.136719 C 171.332031 60.027344 179.46875 45.992188 190.757812 36.195312 C 198.894531 29.113281 208.695312 24.21875 219.40625 21.542969 C 229.617188 19.035156 240.660156 18.542969 251.910156 20.1875 Z M 251.910156 188.453125 L 41.886719 188.453125 C 54.878906 148.445312 127.488281 160.300781 161.988281 140.417969 C 197.855469 119.671875 178.675781 69.085938 251.910156 70.609375 Z M 251.910156 188.453125 "/></g></g></g></g><g clip-rule="nonzero" clip-path="url(#4e8214a7a5)"><g mask="url(#0fc5ba6c60)" transform="matrix(1,0,0,1,-0.000000000000000002,0)"><g id="07f719c147" clip-path="url(#7b68db5c9b)"><g clip-rule="nonzero" clip-path="url(#bb320c62e6)"><g clip-rule="nonzero" clip-path="url(#d62c8f0f74)"><g clip-rule="nonzero" clip-path="url(#9ce73e2100)"><path style=" stroke:none;fill-rule:evenodd;fill:#d9d9d9;fill-opacity:1;" d="M 143.847656 -12.003906 C 192.570312 92.902344 215 258.433594 361.058594 300.003906 C 521.429688 345.703125 567.859375 448.21875 602.683594 578.214844 L 700.796875 102.976562 Z M 143.847656 -12.003906 "/></g></g></g><g clip-rule="nonzero" clip-path="url(#2ba88343a2)"><g clip-rule="nonzero" clip-path="url(#afe87e3060)"><g clip-rule="nonzero" clip-path="url(#e30feaea52)"><path style=" stroke:none;fill-rule:evenodd;fill:#a6a6a6;fill-opacity:1;" d="M 66.125 -28.050781 C 142.847656 89.789062 448.253906 44.972656 440.683594 197.371094 C 434.28125 328.457031 552.539062 368.128906 630.023438 445.785156 L 700.796875 102.976562 Z M 66.125 -28.050781 "/></g></g></g><g clip-rule="nonzero" clip-path="url(#74e33b8f2e)"><g clip-rule="nonzero" clip-path="url(#c516a58a92)"><g clip-rule="nonzero" clip-path="url(#5207fcbab1)"><path style=" stroke:none;fill-rule:nonzero;fill:#d9d9d9;fill-opacity:1;" d="M 650.160156 348.242188 L 648.320312 357.15625 C 570.394531 339.761719 497.027344 315.3125 479.882812 216.878906 C 465.820312 136.410156 395.710938 83.527344 340.769531 42.105469 C 332.386719 35.785156 324.296875 29.632812 316.804688 23.703125 L 337.339844 27.941406 C 340.222656 30.140625 343.292969 32.480469 346.359375 34.816406 C 402.59375 77.261719 474.296875 131.332031 489.023438 215.351562 C 505.101562 307.898438 575.347656 331.480469 650.160156 348.242188 Z M 650.160156 348.242188 "/></g></g></g></g><mask id="0fc5ba6c60"><g filter="url(#e563799d5a)"><rect x="0" width="595" height="842" y="0" style="fill:#000000;fill-opacity:0.38;stroke:none;"/></g></mask></g></g><g clip-rule="nonzero" clip-path="url(#9ddf37432b)"><path style=" stroke:none;fill-rule:evenodd;fill:#17969d;fill-opacity:1;" d="M 247.339844 -6.8125 C 289.46875 49.960938 323.351562 146.277344 415.917969 153.109375 C 517.5625 160.648438 558.023438 216.277344 594.9375 289.785156 L 594.9375 -6.8125 Z M 247.339844 -6.8125 "/></g><g clip-rule="nonzero" clip-path="url(#f8735f0a6d)"><path style=" stroke:none;fill-rule:evenodd;fill:#017077;fill-opacity:1;" d="M 198.832031 -6.8125 C 259.320312 54.246094 436.597656 -10.324219 450.898438 81.835938 C 463.265625 161.09375 538.957031 170.226562 594.9375 207.136719 L 594.9375 -6.8125 Z M 198.832031 -6.8125 "/></g><g clip-rule="nonzero" clip-path="url(#5701424531)"><path style=" stroke:none;fill-rule:nonzero;fill:#17969d;fill-opacity:1;" d="M 594.9375 146.257812 L 594.9375 151.820312 C 546.140625 151.039062 499.203125 145.472656 476.773438 88.667969 C 458.414062 42.238281 409.910156 19.246094 371.902344 1.242188 C 366.105469 -1.507812 360.5 -4.191406 355.285156 -6.8125 L 368.101562 -6.8125 C 370.097656 -5.855469 372.222656 -4.832031 374.347656 -3.8125 C 413.257812 14.644531 462.859375 38.152344 482.058594 86.625 C 503.117188 140.035156 548.082031 145.472656 594.9375 146.257812 Z M 594.9375 146.257812 "/></g></g></g></g></g></svg>