<svg xmlns="http://www.w3.org/2000/svg" xmlns:xlink="http://www.w3.org/1999/xlink" width="512" zoomAndPan="magnify" viewBox="0 0 384 383.999986" height="512" preserveAspectRatio="xMidYMid meet" version="1.2"><defs><clipPath id="f880dfa029"><path d="M 25.851562 7.84375 L 358.148438 7.84375 L 358.148438 340.140625 L 25.851562 340.140625 Z M 25.851562 7.84375 "/></clipPath></defs><g id="ab689c3b35"><rect x="0" width="384" y="0" height="383.999986" style="fill:#ffffff;fill-opacity:1;stroke:none;"/><rect x="0" width="384" y="0" height="383.999986" style="fill:#ffffff;fill-opacity:1;stroke:none;"/><g clip-rule="nonzero" clip-path="url(#f880dfa029)"><path style=" stroke:none;fill-rule:nonzero;fill:#ffffff;fill-opacity:1;" d="M 25.851562 7.84375 L 358.148438 7.84375 L 358.148438 340.140625 L 25.851562 340.140625 Z M 25.851562 7.84375 "/></g><path style="fill-rule:nonzero;fill:#ffffff;fill-opacity:1;stroke-width:1;stroke-linecap:butt;stroke-linejoin:miter;stroke:#000000;stroke-opacity:1;stroke-miterlimit:4;" d="M 1.999864 2.500194 L 8.999896 2.500194 M 17.999812 2.500194 L 20.000132 2.500194 M 21.000074 2.500194 L 25.999786 2.500194 M 28.000105 2.500194 L 35.000137 2.500194 M 1.999864 3.500137 L 2.999807 3.500137 M 7.999953 3.500137 L 8.999896 3.500137 M 11.000215 3.500137 L 12.000158 3.500137 M 13.0001 3.500137 L 14.999985 3.500137 M 16.99987 3.500137 L 20.000132 3.500137 M 22.000016 3.500137 L 24.999843 3.500137 M 25.999786 3.500137 L 27.000163 3.500137 M 28.000105 3.500137 L 29.000048 3.500137 M 34.000194 3.500137 L 35.000137 3.500137 M 1.999864 4.500079 L 2.999807 4.500079 M 4.000184 4.500079 L 7.000011 4.500079 M 7.999953 4.500079 L 8.999896 4.500079 M 9.999838 4.500079 L 11.000215 4.500079 M 15.999927 4.500079 L 17.999812 4.500079 M 20.000132 4.500079 L 21.000074 4.500079 M 22.000016 4.500079 L 23.999901 4.500079 M 24.999843 4.500079 L 27.000163 4.500079 M 28.000105 4.500079 L 29.000048 4.500079 M 29.99999 4.500079 L 32.999817 4.500079 M 34.000194 4.500079 L 35.000137 4.500079 M 1.999864 5.500022 L 2.999807 5.500022 M 4.000184 5.500022 L 7.000011 5.500022 M 7.999953 5.500022 L 8.999896 5.500022 M 9.999838 5.500022 L 11.000215 5.500022 M 12.000158 5.500022 L 14.000042 5.500022 M 19.000189 5.500022 L 20.000132 5.500022 M 21.000074 5.500022 L 22.000016 5.500022 M 23.999901 5.500022 L 24.999843 5.500022 M 28.000105 5.500022 L 29.000048 5.500022 M 29.99999 5.500022 L 32.999817 5.500022 M 34.000194 5.500022 L 35.000137 5.500022 M 1.999864 6.499964 L 2.999807 6.499964 M 4.000184 6.499964 L 7.000011 6.499964 M 7.999953 6.499964 L 8.999896 6.499964 M 9.999838 6.499964 L 12.000158 6.499964 M 16.99987 6.499964 L 17.999812 6.499964 M 19.000189 6.499964 L 22.000016 6.499964 M 22.999959 6.499964 L 23.999901 6.499964 M 24.999843 6.499964 L 25.999786 6.499964 M 28.000105 6.499964 L 29.000048 6.499964 M 29.99999 6.499964 L 32.999817 6.499964 M 34.000194 6.499964 L 35.000137 6.499964 M 1.999864 7.499906 L 2.999807 7.499906 M 7.999953 7.499906 L 8.999896 7.499906 M 9.999838 7.499906 L 14.999985 7.499906 M 15.999927 7.499906 L 17.999812 7.499906 M 20.000132 7.499906 L 21.000074 7.499906 M 22.000016 7.499906 L 24.999843 7.499906 M 25.999786 7.499906 L 27.000163 7.499906 M 28.000105 7.499906 L 29.000048 7.499906 M 34.000194 7.499906 L 35.000137 7.499906 M 1.999864 8.499849 L 8.999896 8.499849 M 9.999838 8.499849 L 11.000215 8.499849 M 12.000158 8.499849 L 13.0001 8.499849 M 14.000042 8.499849 L 14.999985 8.499849 M 15.999927 8.499849 L 16.99987 8.499849 M 17.999812 8.499849 L 19.000189 8.499849 M 20.000132 8.499849 L 21.000074 8.499849 M 22.000016 8.499849 L 22.999959 8.499849 M 23.999901 8.499849 L 24.999843 8.499849 M 25.999786 8.499849 L 27.000163 8.499849 M 28.000105 8.499849 L 35.000137 8.499849 M 9.999838 9.499791 L 11.000215 9.499791 M 12.000158 9.499791 L 14.000042 9.499791 M 15.999927 9.499791 L 19.000189 9.499791 M 22.000016 9.499791 L 23.999901 9.499791 M 24.999843 9.499791 L 27.000163 9.499791 M 1.999864 10.500168 L 2.999807 10.500168 M 4.000184 10.500168 L 8.999896 10.500168 M 13.0001 10.500168 L 16.99987 10.500168 M 19.000189 10.500168 L 20.000132 10.500168 M 23.999901 10.500168 L 24.999843 10.500168 M 28.000105 10.500168 L 32.999817 10.500168 M 1.999864 11.500111 L 4.000184 11.500111 M 7.000011 11.500111 L 7.999953 11.500111 M 12.000158 11.500111 L 16.99987 11.500111 M 17.999812 11.500111 L 20.000132 11.500111 M 21.000074 11.500111 L 22.999959 11.500111 M 24.999843 11.500111 L 25.999786 11.500111 M 28.000105 11.500111 L 29.99999 11.500111 M 30.999932 11.500111 L 32.999817 11.500111 M 34.000194 11.500111 L 35.000137 11.500111 M 1.999864 12.500053 L 2.999807 12.500053 M 4.000184 12.500053 L 5.000126 12.500053 M 7.000011 12.500053 L 8.999896 12.500053 M 9.999838 12.500053 L 11.000215 12.500053 M 12.000158 12.500053 L 14.000042 12.500053 M 14.999985 12.500053 L 17.999812 12.500053 M 20.000132 12.500053 L 21.000074 12.500053 M 22.000016 12.500053 L 23.999901 12.500053 M 27.000163 12.500053 L 28.000105 12.500053 M 29.99999 12.500053 L 30.999932 12.500053 M 31.999875 12.500053 L 34.000194 12.500053 M 1.999864 13.499995 L 2.999807 13.499995 M 4.000184 13.499995 L 6.000069 13.499995 M 12.000158 13.499995 L 14.000042 13.499995 M 14.999985 13.499995 L 15.999927 13.499995 M 17.999812 13.499995 L 19.000189 13.499995 M 20.000132 13.499995 L 24.999843 13.499995 M 27.000163 13.499995 L 28.000105 13.499995 M 29.99999 13.499995 L 32.999817 13.499995 M 34.000194 13.499995 L 35.000137 13.499995 M 1.999864 14.499938 L 6.000069 14.499938 M 7.999953 14.499938 L 9.999838 14.499938 M 11.000215 14.499938 L 12.000158 14.499938 M 14.000042 14.499938 L 14.999985 14.499938 M 15.999927 14.499938 L 17.999812 14.499938 M 19.000189 14.499938 L 20.000132 14.499938 M 21.000074 14.499938 L 22.000016 14.499938 M 23.999901 14.499938 L 24.999843 14.499938 M 27.000163 14.499938 L 28.000105 14.499938 M 29.000048 14.499938 L 31.999875 14.499938 M 32.999817 14.499938 L 34.000194 14.499938 M 4.000184 15.49988 L 7.999953 15.49988 M 9.999838 15.49988 L 14.000042 15.49988 M 14.999985 15.49988 L 15.999927 15.49988 M 16.99987 15.49988 L 17.999812 15.49988 M 21.000074 15.49988 L 22.999959 15.49988 M 24.999843 15.49988 L 25.999786 15.49988 M 28.000105 15.49988 L 29.000048 15.49988 M 30.999932 15.49988 L 35.000137 15.49988 M 5.000126 16.499822 L 9.999838 16.499822 M 11.000215 16.499822 L 17.999812 16.499822 M 19.000189 16.499822 L 20.000132 16.499822 M 22.999959 16.499822 L 23.999901 16.499822 M 27.000163 16.499822 L 29.000048 16.499822 M 30.999932 16.499822 L 34.000194 16.499822 M 1.999864 17.5002 L 2.999807 17.5002 M 4.000184 17.5002 L 7.000011 17.5002 M 8.999896 17.5002 L 13.0001 17.5002 M 14.000042 17.5002 L 14.999985 17.5002 M 16.99987 17.5002 L 17.999812 17.5002 M 22.000016 17.5002 L 24.999843 17.5002 M 27.000163 17.5002 L 32.999817 17.5002 M 1.999864 18.500142 L 5.000126 18.500142 M 7.999953 18.500142 L 8.999896 18.500142 M 11.000215 18.500142 L 12.000158 18.500142 M 13.0001 18.500142 L 14.999985 18.500142 M 16.99987 18.500142 L 20.000132 18.500142 M 23.999901 18.500142 L 24.999843 18.500142 M 25.999786 18.500142 L 28.000105 18.500142 M 29.000048 18.500142 L 31.999875 18.500142 M 34.000194 18.500142 L 35.000137 18.500142 M 4.000184 19.500084 L 7.999953 19.500084 M 9.999838 19.500084 L 12.000158 19.500084 M 13.0001 19.500084 L 14.000042 19.500084 M 15.999927 19.500084 L 16.99987 19.500084 M 17.999812 19.500084 L 19.000189 19.500084 M 20.000132 19.500084 L 22.000016 19.500084 M 22.999959 19.500084 L 23.999901 19.500084 M 24.999843 19.500084 L 25.999786 19.500084 M 28.000105 19.500084 L 29.99999 19.500084 M 30.999932 19.500084 L 35.000137 19.500084 M 4.000184 20.500027 L 7.000011 20.500027 M 7.999953 20.500027 L 11.000215 20.500027 M 14.999985 20.500027 L 15.999927 20.500027 M 16.99987 20.500027 L 19.000189 20.500027 M 22.000016 20.500027 L 22.999959 20.500027 M 23.999901 20.500027 L 24.999843 20.500027 M 27.000163 20.500027 L 28.000105 20.500027 M 29.000048 20.500027 L 30.999932 20.500027 M 31.999875 20.500027 L 34.000194 20.500027 M 1.999864 21.499969 L 2.999807 21.499969 M 4.000184 21.499969 L 6.000069 21.499969 M 9.999838 21.499969 L 11.000215 21.499969 M 12.000158 21.499969 L 16.99987 21.499969 M 17.999812 21.499969 L 19.000189 21.499969 M 20.000132 21.499969 L 23.999901 21.499969 M 24.999843 21.499969 L 27.000163 21.499969 M 29.000048 21.499969 L 34.000194 21.499969 M 1.999864 22.499911 L 6.000069 22.499911 M 7.999953 22.499911 L 9.999838 22.499911 M 11.000215 22.499911 L 12.000158 22.499911 M 13.0001 22.499911 L 14.999985 22.499911 M 15.999927 22.499911 L 16.99987 22.499911 M 17.999812 22.499911 L 20.000132 22.499911 M 21.000074 22.499911 L 22.999959 22.499911 M 23.999901 22.499911 L 24.999843 22.499911 M 25.999786 22.499911 L 27.000163 22.499911 M 29.000048 22.499911 L 31.999875 22.499911 M 32.999817 22.499911 L 35.000137 22.499911 M 1.999864 23.499854 L 4.000184 23.499854 M 5.000126 23.499854 L 6.000069 23.499854 M 9.999838 23.499854 L 11.000215 23.499854 M 14.999985 23.499854 L 17.999812 23.499854 M 20.000132 23.499854 L 23.999901 23.499854 M 24.999843 23.499854 L 25.999786 23.499854 M 28.000105 23.499854 L 29.000048 23.499854 M 31.999875 23.499854 L 32.999817 23.499854 M 34.000194 23.499854 L 35.000137 23.499854 M 1.999864 24.499796 L 2.999807 24.499796 M 4.000184 24.499796 L 5.000126 24.499796 M 6.000069 24.499796 L 7.000011 24.499796 M 7.999953 24.499796 L 9.999838 24.499796 M 11.000215 24.499796 L 12.000158 24.499796 M 14.000042 24.499796 L 15.999927 24.499796 M 16.99987 24.499796 L 19.000189 24.499796 M 20.000132 24.499796 L 21.000074 24.499796 M 22.000016 24.499796 L 22.999959 24.499796 M 23.999901 24.499796 L 24.999843 24.499796 M 27.000163 24.499796 L 30.999932 24.499796 M 32.999817 24.499796 L 34.000194 24.499796 M 1.999864 25.500173 L 2.999807 25.500173 M 5.000126 25.500173 L 7.000011 25.500173 M 11.000215 25.500173 L 14.000042 25.500173 M 16.99987 25.500173 L 19.000189 25.500173 M 22.999959 25.500173 L 23.999901 25.500173 M 24.999843 25.500173 L 28.000105 25.500173 M 30.999932 25.500173 L 32.999817 25.500173 M 34.000194 25.500173 L 35.000137 25.500173 M 1.999864 26.500116 L 2.999807 26.500116 M 4.000184 26.500116 L 5.000126 26.500116 M 6.000069 26.500116 L 12.000158 26.500116 M 14.999985 26.500116 L 16.99987 26.500116 M 19.000189 26.500116 L 20.000132 26.500116 M 23.999901 26.500116 L 24.999843 26.500116 M 25.999786 26.500116 L 30.999932 26.500116 M 34.000194 26.500116 L 35.000137 26.500116 M 9.999838 27.500058 L 14.999985 27.500058 M 19.000189 27.500058 L 22.999959 27.500058 M 24.999843 27.500058 L 27.000163 27.500058 M 29.99999 27.500058 L 30.999932 27.500058 M 31.999875 27.500058 L 32.999817 27.500058 M 34.000194 27.500058 L 35.000137 27.500058 M 1.999864 28.5 L 8.999896 28.5 M 11.000215 28.5 L 14.999985 28.5 M 16.99987 28.5 L 17.999812 28.5 M 22.000016 28.5 L 23.999901 28.5 M 24.999843 28.5 L 27.000163 28.5 M 28.000105 28.5 L 29.000048 28.5 M 29.99999 28.5 L 30.999932 28.5 M 31.999875 28.5 L 32.999817 28.5 M 1.999864 29.499943 L 2.999807 29.499943 M 7.999953 29.499943 L 8.999896 29.499943 M 9.999838 29.499943 L 13.0001 29.499943 M 16.99987 29.499943 L 19.000189 29.499943 M 21.000074 29.499943 L 22.000016 29.499943 M 22.999959 29.499943 L 27.000163 29.499943 M 29.99999 29.499943 L 35.000137 29.499943 M 1.999864 30.499885 L 2.999807 30.499885 M 4.000184 30.499885 L 7.000011 30.499885 M 7.999953 30.499885 L 8.999896 30.499885 M 9.999838 30.499885 L 12.000158 30.499885 M 17.999812 30.499885 L 20.000132 30.499885 M 23.999901 30.499885 L 24.999843 30.499885 M 25.999786 30.499885 L 31.999875 30.499885 M 32.999817 30.499885 L 34.000194 30.499885 M 1.999864 31.499828 L 2.999807 31.499828 M 4.000184 31.499828 L 7.000011 31.499828 M 7.999953 31.499828 L 8.999896 31.499828 M 9.999838 31.499828 L 11.000215 31.499828 M 12.000158 31.499828 L 13.0001 31.499828 M 14.999985 31.499828 L 16.99987 31.499828 M 19.000189 31.499828 L 22.999959 31.499828 M 24.999843 31.499828 L 28.000105 31.499828 M 29.99999 31.499828 L 30.999932 31.499828 M 32.999817 31.499828 L 35.000137 31.499828 M 1.999864 32.500205 L 2.999807 32.500205 M 4.000184 32.500205 L 7.000011 32.500205 M 7.999953 32.500205 L 8.999896 32.500205 M 9.999838 32.500205 L 11.000215 32.500205 M 12.000158 32.500205 L 13.0001 32.500205 M 14.000042 32.500205 L 14.999985 32.500205 M 15.999927 32.500205 L 17.999812 32.500205 M 22.000016 32.500205 L 23.999901 32.500205 M 27.000163 32.500205 L 29.99999 32.500205 M 30.999932 32.500205 L 32.999817 32.500205 M 1.999864 33.500147 L 2.999807 33.500147 M 7.999953 33.500147 L 8.999896 33.500147 M 11.000215 33.500147 L 15.999927 33.500147 M 16.99987 33.500147 L 19.000189 33.500147 M 20.000132 33.500147 L 22.000016 33.500147 M 22.999959 33.500147 L 24.999843 33.500147 M 27.000163 33.500147 L 29.000048 33.500147 M 29.99999 33.500147 L 32.999817 33.500147 M 1.999864 34.50009 L 8.999896 34.50009 M 9.999838 34.50009 L 11.000215 34.50009 M 14.000042 34.50009 L 14.999985 34.50009 M 15.999927 34.50009 L 16.99987 34.50009 M 19.000189 34.50009 L 20.000132 34.50009 M 23.999901 34.50009 L 28.000105 34.50009 M 29.000048 34.50009 L 29.99999 34.50009 M 32.999817 34.50009 L 34.000194 34.50009 " transform="matrix(8.980986,0,0,8.980986,25.851745,7.842662)"/><g style="fill:#000000;fill-opacity:1;"><g transform="translate(15.398443, 369.699902)"><path style="stroke:none" d="M 16.453125 0.53125 C 13.878906 0.53125 11.585938 0.210938 9.578125 -0.421875 C 7.578125 -1.054688 5.90625 -1.890625 4.5625 -2.921875 C 3.226562 -3.953125 2.207031 -5.085938 1.5 -6.328125 L 5.53125 -11.25 L 6.171875 -11.25 C 7.285156 -9.59375 8.703125 -8.269531 10.421875 -7.28125 C 12.140625 -6.300781 14.148438 -5.8125 16.453125 -5.8125 C 18.421875 -5.8125 19.898438 -6.222656 20.890625 -7.046875 C 21.890625 -7.878906 22.390625 -9.023438 22.390625 -10.484375 C 22.390625 -11.367188 22.226562 -12.101562 21.90625 -12.6875 C 21.59375 -13.28125 21.0625 -13.789062 20.3125 -14.21875 C 19.570312 -14.644531 18.566406 -15.007812 17.296875 -15.3125 L 12.515625 -16.40625 C 9.179688 -17.164062 6.695312 -18.429688 5.0625 -20.203125 C 3.425781 -21.972656 2.609375 -24.269531 2.609375 -27.09375 C 2.609375 -29.1875 3.132812 -31.03125 4.1875 -32.625 C 5.238281 -34.21875 6.765625 -35.453125 8.765625 -36.328125 C 10.773438 -37.210938 13.175781 -37.65625 15.96875 -37.65625 C 18.832031 -37.65625 21.28125 -37.273438 23.3125 -36.515625 C 25.351562 -35.765625 27.078125 -34.613281 28.484375 -33.0625 L 24.859375 -28.078125 L 24.21875 -28.078125 C 23.175781 -29.179688 21.976562 -30.007812 20.625 -30.5625 C 19.269531 -31.113281 17.71875 -31.390625 15.96875 -31.390625 C 13.957031 -31.390625 12.425781 -31.03125 11.375 -30.3125 C 10.320312 -29.601562 9.796875 -28.625 9.796875 -27.375 C 9.796875 -26.207031 10.164062 -25.273438 10.90625 -24.578125 C 11.644531 -23.878906 12.921875 -23.335938 14.734375 -22.953125 L 19.609375 -21.9375 C 23.210938 -21.175781 25.828125 -19.882812 27.453125 -18.0625 C 29.078125 -16.25 29.890625 -13.875 29.890625 -10.9375 C 29.890625 -8.625 29.390625 -6.609375 28.390625 -4.890625 C 27.390625 -3.171875 25.878906 -1.835938 23.859375 -0.890625 C 21.847656 0.0546875 19.378906 0.53125 16.453125 0.53125 Z M 16.453125 0.53125 "/></g></g><g style="fill:#000000;fill-opacity:1;"><g transform="translate(47.28667, 369.699902)"><path style="stroke:none" d="M 16.328125 0.53125 C 13.617188 0.53125 11.222656 -0.03125 9.140625 -1.15625 C 7.054688 -2.28125 5.429688 -3.929688 4.265625 -6.109375 C 3.097656 -8.296875 2.515625 -10.921875 2.515625 -13.984375 C 2.515625 -17.066406 3.097656 -19.695312 4.265625 -21.875 C 5.429688 -24.0625 7.046875 -25.71875 9.109375 -26.84375 C 11.179688 -27.976562 13.546875 -28.546875 16.203125 -28.546875 C 22.109375 -28.546875 25.890625 -26.398438 27.546875 -22.109375 L 22.71875 -18.65625 L 22.1875 -18.65625 C 21.613281 -19.976562 20.863281 -20.960938 19.9375 -21.609375 C 19.019531 -22.253906 17.773438 -22.578125 16.203125 -22.578125 C 14.171875 -22.578125 12.585938 -21.875 11.453125 -20.46875 C 10.316406 -19.0625 9.75 -16.898438 9.75 -13.984375 C 9.75 -11.109375 10.320312 -8.960938 11.46875 -7.546875 C 12.625 -6.140625 14.242188 -5.4375 16.328125 -5.4375 C 17.847656 -5.4375 19.132812 -5.84375 20.1875 -6.65625 C 21.25 -7.476562 22.007812 -8.660156 22.46875 -10.203125 L 23 -10.265625 L 28 -7.515625 C 27.289062 -5.148438 25.972656 -3.21875 24.046875 -1.71875 C 22.128906 -0.21875 19.554688 0.53125 16.328125 0.53125 Z M 16.328125 0.53125 "/></g></g><g style="fill:#000000;fill-opacity:1;"><g transform="translate(76.153646, 369.699902)"><path style="stroke:none" d="M 10.921875 0.53125 C 9.128906 0.53125 7.570312 0.203125 6.25 -0.453125 C 4.925781 -1.117188 3.910156 -2.085938 3.203125 -3.359375 C 2.492188 -4.640625 2.140625 -6.175781 2.140625 -7.96875 C 2.140625 -9.632812 2.492188 -11.03125 3.203125 -12.15625 C 3.910156 -13.28125 5.007812 -14.203125 6.5 -14.921875 C 7.988281 -15.640625 9.9375 -16.191406 12.34375 -16.578125 C 14.019531 -16.847656 15.289062 -17.144531 16.15625 -17.46875 C 17.03125 -17.789062 17.617188 -18.15625 17.921875 -18.5625 C 18.234375 -18.96875 18.390625 -19.484375 18.390625 -20.109375 C 18.390625 -21.003906 18.070312 -21.6875 17.4375 -22.15625 C 16.8125 -22.632812 15.773438 -22.875 14.328125 -22.875 C 12.765625 -22.875 11.28125 -22.523438 9.875 -21.828125 C 8.46875 -21.140625 7.25 -20.226562 6.21875 -19.09375 L 5.71875 -19.09375 L 2.765625 -23.53125 C 4.191406 -25.113281 5.925781 -26.34375 7.96875 -27.21875 C 10.019531 -28.101562 12.253906 -28.546875 14.671875 -28.546875 C 18.378906 -28.546875 21.0625 -27.753906 22.71875 -26.171875 C 24.382812 -24.597656 25.21875 -22.363281 25.21875 -19.46875 L 25.21875 -7.3125 C 25.21875 -6.0625 25.765625 -5.4375 26.859375 -5.4375 C 27.285156 -5.4375 27.703125 -5.507812 28.109375 -5.65625 L 28.46875 -5.5625 L 28.96875 -0.65625 C 28.582031 -0.40625 28.039062 -0.195312 27.34375 -0.03125 C 26.65625 0.125 25.894531 0.203125 25.0625 0.203125 C 23.382812 0.203125 22.078125 -0.117188 21.140625 -0.765625 C 20.203125 -1.410156 19.53125 -2.414062 19.125 -3.78125 L 18.59375 -3.828125 C 17.21875 -0.921875 14.660156 0.53125 10.921875 0.53125 Z M 13.15625 -4.71875 C 14.78125 -4.71875 16.078125 -5.265625 17.046875 -6.359375 C 18.023438 -7.453125 18.515625 -8.972656 18.515625 -10.921875 L 18.515625 -13.765625 L 18.03125 -13.859375 C 17.601562 -13.523438 17.046875 -13.242188 16.359375 -13.015625 C 15.679688 -12.785156 14.695312 -12.5625 13.40625 -12.34375 C 11.882812 -12.082031 10.785156 -11.644531 10.109375 -11.03125 C 9.441406 -10.414062 9.109375 -9.539062 9.109375 -8.40625 C 9.109375 -7.207031 9.460938 -6.289062 10.171875 -5.65625 C 10.890625 -5.03125 11.882812 -4.71875 13.15625 -4.71875 Z M 13.15625 -4.71875 "/></g></g><g style="fill:#000000;fill-opacity:1;"><g transform="translate(105.680728, 369.699902)"><path style="stroke:none" d="M 4.03125 0 L 4.03125 -28 L 10.796875 -28 L 10.796875 -23.890625 L 11.328125 -23.765625 C 13.066406 -26.953125 15.894531 -28.546875 19.8125 -28.546875 C 23.039062 -28.546875 25.410156 -27.664062 26.921875 -25.90625 C 28.441406 -24.144531 29.203125 -21.578125 29.203125 -18.203125 L 29.203125 0 L 22.171875 0 L 22.171875 -17.34375 C 22.171875 -19.207031 21.796875 -20.546875 21.046875 -21.359375 C 20.304688 -22.179688 19.113281 -22.59375 17.46875 -22.59375 C 15.457031 -22.59375 13.890625 -21.941406 12.765625 -20.640625 C 11.640625 -19.335938 11.078125 -17.289062 11.078125 -14.5 L 11.078125 0 Z M 4.03125 0 "/></g></g><g style="fill:#000000;fill-opacity:1;"><g transform="translate(138.482949, 369.699902)"><path style="stroke:none" d=""/></g></g><g style="fill:#000000;fill-opacity:1;"><g transform="translate(150.745704, 369.699902)"><path style="stroke:none" d="M 19.328125 -6.671875 L 21.15625 -1.46875 C 20.394531 -0.84375 19.4375 -0.351562 18.28125 0 C 17.132812 0.351562 15.832031 0.53125 14.375 0.53125 C 11.34375 0.53125 9.039062 -0.289062 7.46875 -1.9375 C 5.894531 -3.59375 5.109375 -5.992188 5.109375 -9.140625 L 5.109375 -22.453125 L 0.84375 -22.453125 L 0.84375 -28.03125 L 5.109375 -28.03125 L 5.109375 -33.484375 L 12.140625 -34.640625 L 12.140625 -28.03125 L 20.078125 -28.03125 L 20.078125 -22.453125 L 12.140625 -22.453125 L 12.140625 -9.65625 C 12.140625 -8.257812 12.425781 -7.242188 13 -6.609375 C 13.570312 -5.972656 14.410156 -5.65625 15.515625 -5.65625 C 16.765625 -5.65625 17.859375 -5.992188 18.796875 -6.671875 Z M 19.328125 -6.671875 "/></g></g><g style="fill:#000000;fill-opacity:1;"><g transform="translate(172.17378, 369.699902)"><path style="stroke:none" d="M 16.28125 0.53125 C 13.53125 0.53125 11.117188 -0.03125 9.046875 -1.15625 C 6.972656 -2.28125 5.363281 -3.929688 4.21875 -6.109375 C 3.082031 -8.285156 2.515625 -10.910156 2.515625 -13.984375 C 2.515625 -17.066406 3.082031 -19.695312 4.21875 -21.875 C 5.363281 -24.0625 6.972656 -25.71875 9.046875 -26.84375 C 11.117188 -27.976562 13.53125 -28.546875 16.28125 -28.546875 C 19.019531 -28.546875 21.425781 -27.976562 23.5 -26.84375 C 25.570312 -25.71875 27.179688 -24.0625 28.328125 -21.875 C 29.484375 -19.695312 30.0625 -17.066406 30.0625 -13.984375 C 30.0625 -10.910156 29.484375 -8.285156 28.328125 -6.109375 C 27.179688 -3.929688 25.570312 -2.28125 23.5 -1.15625 C 21.425781 -0.03125 19.019531 0.53125 16.28125 0.53125 Z M 16.28125 -5.4375 C 20.625 -5.4375 22.796875 -8.285156 22.796875 -13.984375 C 22.796875 -16.953125 22.238281 -19.125 21.125 -20.5 C 20.007812 -21.882812 18.394531 -22.578125 16.28125 -22.578125 C 11.925781 -22.578125 9.75 -19.710938 9.75 -13.984375 C 9.75 -8.285156 11.925781 -5.4375 16.28125 -5.4375 Z M 16.28125 -5.4375 "/></g></g><g style="fill:#000000;fill-opacity:1;"><g transform="translate(204.722113, 369.699902)"><path style="stroke:none" d=""/></g></g><g style="fill:#000000;fill-opacity:1;"><g transform="translate(216.984869, 369.699902)"><path style="stroke:none" d="M 22.0625 0 L 13.203125 0 L 0.65625 -37.125 L 8.453125 -37.125 L 17.46875 -9.453125 L 18.109375 -9.453125 L 26.984375 -37.125 L 34.578125 -37.125 Z M 22.0625 0 "/></g></g><g style="fill:#000000;fill-opacity:1;"><g transform="translate(250.091708, 369.699902)"><path style="stroke:none" d="M 27.671875 -12.421875 L 9.671875 -12.421875 C 9.878906 -9.984375 10.570312 -8.207031 11.75 -7.09375 C 12.9375 -5.988281 14.554688 -5.4375 16.609375 -5.4375 C 18.210938 -5.4375 19.515625 -5.734375 20.515625 -6.328125 C 21.515625 -6.929688 22.316406 -7.84375 22.921875 -9.0625 L 23.46875 -9.0625 L 28.140625 -6.0625 C 27.222656 -4.101562 25.84375 -2.515625 24 -1.296875 C 22.15625 -0.078125 19.691406 0.53125 16.609375 0.53125 C 13.710938 0.53125 11.207031 -0.015625 9.09375 -1.109375 C 6.988281 -2.210938 5.363281 -3.851562 4.21875 -6.03125 C 3.082031 -8.207031 2.515625 -10.859375 2.515625 -13.984375 C 2.515625 -17.171875 3.113281 -19.851562 4.3125 -22.03125 C 5.519531 -24.21875 7.144531 -25.847656 9.1875 -26.921875 C 11.238281 -28.003906 13.539062 -28.546875 16.09375 -28.546875 C 20.0625 -28.546875 23.097656 -27.492188 25.203125 -25.390625 C 27.304688 -23.296875 28.359375 -20.21875 28.359375 -16.15625 C 28.359375 -14.675781 28.304688 -13.53125 28.203125 -12.71875 Z M 21.640625 -16.96875 C 21.566406 -19.09375 21.066406 -20.640625 20.140625 -21.609375 C 19.222656 -22.585938 17.875 -23.078125 16.09375 -23.078125 C 12.539062 -23.078125 10.453125 -21.039062 9.828125 -16.96875 Z M 21.640625 -16.96875 "/></g></g><g style="fill:#000000;fill-opacity:1;"><g transform="translate(280.532761, 369.699902)"><path style="stroke:none" d="M 4.03125 0 L 4.03125 -28 L 10.875 -28 L 10.875 -23.84375 L 11.40625 -23.734375 C 12.082031 -25.296875 12.96875 -26.441406 14.0625 -27.171875 C 15.164062 -27.898438 16.503906 -28.265625 18.078125 -28.265625 C 19.671875 -28.265625 20.878906 -27.992188 21.703125 -27.453125 L 20.515625 -21.375 L 19.984375 -21.28125 C 19.523438 -21.46875 19.082031 -21.601562 18.65625 -21.6875 C 18.238281 -21.769531 17.722656 -21.8125 17.109375 -21.8125 C 15.148438 -21.8125 13.65625 -21.117188 12.625 -19.734375 C 11.59375 -18.359375 11.078125 -16.148438 11.078125 -13.109375 L 11.078125 0 Z M 4.03125 0 "/></g></g><g style="fill:#000000;fill-opacity:1;"><g transform="translate(302.494017, 369.699902)"><path style="stroke:none" d="M 7.546875 -31.359375 C 6.273438 -31.359375 5.238281 -31.742188 4.4375 -32.515625 C 3.644531 -33.285156 3.25 -34.28125 3.25 -35.5 C 3.25 -36.695312 3.644531 -37.679688 4.4375 -38.453125 C 5.238281 -39.222656 6.273438 -39.609375 7.546875 -39.609375 C 8.390625 -39.609375 9.140625 -39.429688 9.796875 -39.078125 C 10.460938 -38.722656 10.976562 -38.234375 11.34375 -37.609375 C 11.707031 -36.992188 11.890625 -36.289062 11.890625 -35.5 C 11.890625 -34.695312 11.707031 -33.984375 11.34375 -33.359375 C 10.976562 -32.734375 10.460938 -32.242188 9.796875 -31.890625 C 9.140625 -31.535156 8.390625 -31.359375 7.546875 -31.359375 Z M 4.03125 0 L 4.03125 -28 L 11.078125 -28 L 11.078125 0 Z M 4.03125 0 "/></g></g><g style="fill:#000000;fill-opacity:1;"><g transform="translate(317.574903, 369.699902)"><path style="stroke:none" d="M 4.90625 0 L 4.90625 -22.453125 L 0.9375 -22.453125 L 0.9375 -28.03125 L 4.90625 -28.03125 C 4.613281 -29.21875 4.46875 -30.328125 4.46875 -31.359375 C 4.46875 -33.140625 4.875 -34.660156 5.6875 -35.921875 C 6.5 -37.179688 7.664062 -38.140625 9.1875 -38.796875 C 10.71875 -39.453125 12.53125 -39.78125 14.625 -39.78125 C 17.71875 -39.78125 20.03125 -39.25 21.5625 -38.1875 L 19.90625 -33.015625 L 19.375 -32.90625 C 18.320312 -33.65625 16.976562 -34.03125 15.34375 -34.03125 C 14.070312 -34.03125 13.117188 -33.71875 12.484375 -33.09375 C 11.847656 -32.476562 11.53125 -31.640625 11.53125 -30.578125 C 11.53125 -30.117188 11.554688 -29.695312 11.609375 -29.3125 C 11.671875 -28.9375 11.78125 -28.507812 11.9375 -28.03125 L 19.9375 -28.03125 L 19.9375 -22.453125 L 11.9375 -22.453125 L 11.9375 0 Z M 4.90625 0 "/></g></g><g style="fill:#000000;fill-opacity:1;"><g transform="translate(338.52061, 369.699902)"><path style="stroke:none" d="M 6.203125 11.890625 C 4.992188 11.890625 3.898438 11.796875 2.921875 11.609375 C 1.953125 11.421875 1.164062 11.175781 0.5625 10.875 L 1.671875 5.1875 L 2.140625 5.03125 C 2.554688 5.25 3.078125 5.425781 3.703125 5.5625 C 4.328125 5.695312 4.972656 5.765625 5.640625 5.765625 C 6.773438 5.765625 7.71875 5.613281 8.46875 5.3125 C 9.21875 5.019531 9.851562 4.53125 10.375 3.84375 C 10.90625 3.15625 11.375 2.203125 11.78125 0.984375 L 0.609375 -28 L 7.96875 -28 L 14.9375 -8.53125 L 15.546875 -8.53125 L 22.3125 -28 L 29.484375 -28 L 18.234375 1.75 C 17.335938 4.15625 16.347656 6.085938 15.265625 7.546875 C 14.191406 9.015625 12.921875 10.101562 11.453125 10.8125 C 9.992188 11.53125 8.242188 11.890625 6.203125 11.890625 Z M 6.203125 11.890625 "/></g></g></g></svg>